{
  "accessors": [
    {
      "bufferView": 2,
      "componentType": 5126,
      "count": 70,
      "max": [
        263.919921875,
        228.98345947265625,
        45.27558517456055
      ],
      "min": [
        224.15614318847656,
        196.6999969482422,
        7.874015808105469
      ],
      "type": "VEC3"
    },
    {
      "bufferView": 0,
      "componentType": 5125,
      "count": 218,
      "type": "SCALAR"
    },
    {
      "bufferView": 2,
      "byteOffset": 840,
      "componentType": 5126,
      "count": 412,
      "max": [
        263.919921875,
        228.98345947265625,
        45.27558517456055
      ],
      "min": [
        224.15614318847656,
        196.6999969482422,
        7.874015808105469
      ],
      "type": "VEC3"
    },
    {
      "bufferView": 2,
      "byteOffset": 5784,
      "componentType": 5126,
      "count": 412,
      "max": [
        1.0,
        1.0,
        1.0
      ],
      "min": [
        -1.0,
        -1.0,
        -1.0
      ],
      "type": "VEC3"
    },
    {
      "bufferView": 1,
      "componentType": 5126,
      "count": 412,
      "max": [
        2.009999990463257,
        1.899999976158142
      ],
      "min": [
        -2.009999990463257,
        0.0
      ],
      "type": "VEC2"
    },
    {
      "bufferView": 0,
      "byteOffset": 872,
      "componentType": 5125,
      "count": 750,
      "type": "SCALAR"
    },
    {
      "bufferView": 2,
      "byteOffset": 10728,
      "componentType": 5126,
      "count": 20,
      "max": [
        263.919921875,
        228.98345947265625,
        13.77952766418457
      ],
      "min": [
        224.15614318847656,
        197.881103515625,
        7.874015808105469
      ],
      "type": "VEC3"
    },
    {
      "bufferView": 2,
      "byteOffset": 10968,
      "componentType": 5126,
      "count": 20,
      "max": [
        1.0,
        1.0,
        0.0
      ],
      "min": [
        -1.0,
        -1.0,
        -1.0
      ],
      "type": "VEC3"
    },
    {
      "bufferView": 0,
      "byteOffset": 3872,
      "componentType": 5125,
      "count": 30,
      "type": "SCALAR"
    },
    {
      "bufferView": 2,
      "byteOffset": 11208,
      "componentType": 5126,
      "count": 88,
      "max": [
        263.72308349609375,
        228.9834747314453,
        47.24409103393555
      ],
      "min": [
        224.35299682617188,
        195.91259765625,
        45.27558517456055
      ],
      "type": "VEC3"
    },
    {
      "bufferView": 2,
      "byteOffset": 12264,
      "componentType": 5126,
      "count": 88,
      "max": [
        1.0,
        1.0,
        1.0
      ],
      "min": [
        -1.0,
        -1.0,
        -1.0
      ],
      "type": "VEC3"
    },
    {
      "bufferView": 1,
      "byteOffset": 3296,
      "componentType": 5126,
      "count": 88,
      "max": [
        3.9370079040527344,
        3.307086944580078
      ],
      "min": [
        -3.9370079040527344,
        0.0
      ],
      "type": "VEC2"
    },
    {
      "bufferView": 0,
      "byteOffset": 3992,
      "componentType": 5125,
      "count": 156,
      "type": "SCALAR"
    },
    {
      "bufferView": 2,
      "byteOffset": 13320,
      "componentType": 5126,
      "count": 16,
      "max": [
        263.72308349609375,
        228.9834747314453,
        47.24409103393555
      ],
      "min": [
        224.35299682617188,
        195.91259765625,
        45.27558517456055
      ],
      "type": "VEC3"
    },
    {
      "bufferView": 0,
      "byteOffset": 4616,
      "componentType": 5125,
      "count": 48,
      "type": "SCALAR"
    },
    {
      "bufferView": 2,
      "byteOffset": 13512,
      "componentType": 5126,
      "count": 4,
      "max": [
        263.72308349609375,
        197.48739624023438,
        46.456687927246094
      ],
      "min": [
        224.35299682617188,
        196.6999969482422,
        46.456687927246094
      ],
      "type": "VEC3"
    },
    {
      "bufferView": 2,
      "byteOffset": 13560,
      "componentType": 5126,
      "count": 4,
      "max": [
        0.0,
        0.0,
        -1.0
      ],
      "min": [
        0.0,
        0.0,
        -1.0
      ],
      "type": "VEC3"
    },
    {
      "bufferView": 0,
      "byteOffset": 4808,
      "componentType": 5125,
      "count": 6,
      "type": "SCALAR"
    },
    {
      "bufferView": 2,
      "byteOffset": 13608,
      "componentType": 5126,
      "count": 4,
      "max": [
        263.72308349609375,
        197.48739624023438,
        46.456687927246094
      ],
      "min": [
        224.35299682617188,
        196.6999969482422,
        46.456687927246094
      ],
      "type": "VEC3"
    },
    {
      "bufferView": 2,
      "byteOffset": 13656,
      "componentType": 5126,
      "count": 4,
      "max": [
        0.0,
        0.0,
        1.0
      ],
      "min": [
        0.0,
        0.0,
        1.0
      ],
      "type": "VEC3"
    },
    {
      "bufferView": 0,
      "byteOffset": 4832,
      "componentType": 5125,
      "count": 6,
      "type": "SCALAR"
    },
    {
      "bufferView": 2,
      "byteOffset": 13704,
      "componentType": 5126,
      "count": 1120,
      "max": [
        249.94354248046875,
        196.6999969482422,
        44.09449005126953
      ],
      "min": [
        238.1325225830078,
        195.91259765625,
        15.748031616210938
      ],
      "type": "VEC3"
    },
    {
      "bufferView": 2,
      "byteOffset": 27144,
      "componentType": 5126,
      "count": 1120,
      "max": [
        1.0,
        1.0,
        1.0
      ],
      "min": [
        -1.0,
        -1.0,
        -1.0
      ],
      "type": "VEC3"
    },
    {
      "bufferView": 1,
      "byteOffset": 4000,
      "componentType": 5126,
      "count": 1120,
      "max": [
        0.4000000059604645,
        6.0
      ],
      "min": [
        -0.4000000059604645,
        0.0
      ],
      "type": "VEC2"
    },
    {
      "bufferView": 0,
      "byteOffset": 4856,
      "componentType": 5125,
      "count": 2208,
      "type": "SCALAR"
    },
    {
      "bufferView": 2,
      "byteOffset": 40584,
      "componentType": 5126,
      "count": 192,
      "max": [
        249.94354248046875,
        196.6999969482422,
        44.09449005126953
      ],
      "min": [
        238.1325225830078,
        195.91259765625,
        15.748031616210938
      ],
      "type": "VEC3"
    },
    {
      "bufferView": 0,
      "byteOffset": 13688,
      "componentType": 5125,
      "count": 384,
      "type": "SCALAR"
    },
    {
      "bufferView": 2,
      "byteOffset": 42888,
      "componentType": 5126,
      "count": 32,
      "max": [
        262.9356689453125,
        228.19606018066406,
        44.488189697265625
      ],
      "min": [
        225.14039611816406,
        197.48739624023438,
        30.314956665039063
      ],
      "type": "VEC3"
    },
    {
      "bufferView": 0,
      "byteOffset": 15224,
      "componentType": 5125,
      "count": 96,
      "type": "SCALAR"
    },
    {
      "bufferView": 2,
      "byteOffset": 43272,
      "componentType": 5126,
      "count": 96,
      "max": [
        262.9356689453125,
        228.19606018066406,
        44.488189697265625
      ],
      "min": [
        225.14039611816406,
        197.48739624023438,
        30.314956665039063
      ],
      "type": "VEC3"
    },
    {
      "bufferView": 2,
      "byteOffset": 44424,
      "componentType": 5126,
      "count": 96,
      "max": [
        1.0,
        1.0,
        1.0
      ],
      "min": [
        -1.0,
        -1.0,
        -1.0
      ],
      "type": "VEC3"
    },
    {
      "bufferView": 0,
      "byteOffset": 15608,
      "componentType": 5125,
      "count": 168,
      "type": "SCALAR"
    }
  ],
  "asset": {
    "extras": {
      "author": "leti_cipriani (https://sketchfab.com/leti_cipriani)",
      "license": "CC-BY-4.0 (http://creativecommons.org/licenses/by/4.0/)",
      "source": "https://sketchfab.com/3d-models/kitchen-counter-90a0e333d3f343ccb8957debd024f361",
      "title": "Kitchen counter"
    },
    "generator": "Sketchfab-15.30.0",
    "version": "2.0"
  },
  "bufferViews": [
    {
      "buffer": 0,
      "byteLength": 16280,
      "name": "floatBufferViews",
      "target": 34963
    },
    {
      "buffer": 0,
      "byteLength": 12960,
      "byteOffset": 16280,
      "byteStride": 8,
      "name": "floatBufferViews",
      "target": 34962
    },
    {
      "buffer": 0,
      "byteLength": 45576,
      "byteOffset": 29240,
      "byteStride": 12,
      "name": "floatBufferViews",
      "target": 34962
    }
  ],
  "buffers": [
    {
      "byteLength": 74816,
      "uri": "scene.bin"
    }
  ],
  "images": [
    {
      "uri": "textures/Plywood_B_50cm_baseColor.jpeg"
    },
    {
      "uri": "textures/Marble_A_150cm_baseColor.jpeg"
    },
    {
      "uri": "textures/Aluminum_Brushed_5cm_baseColor.jpeg"
    }
  ],
  "materials": [
    {
      "name": "edge_color214177140255",
      "pbrMetallicRoughness": {
        "metallicFactor": 0.0,
        "roughnessFactor": 0.6
      }
    },
    {
      "name": "Plywood_B_50cm",
      "pbrMetallicRoughness": {
        "baseColorTexture": {
          "index": 0
        },
        "metallicFactor": 0.0,
        "roughnessFactor": 0.6
      }
    },
    {
      "name": "Color_M07",
      "pbrMetallicRoughness": {
        "baseColorFactor": [
          0.227451,
          0.227451,
          0.227451,
          1.0
        ],
        "metallicFactor": 0.0,
        "roughnessFactor": 0.6
      }
    },
    {
      "name": "Marble_A_150cm",
      "pbrMetallicRoughness": {
        "baseColorTexture": {
          "index": 1
        },
        "metallicFactor": 0.0,
        "roughnessFactor": 0.6
      }
    },
    {
      "name": "edge_color1079687255",
      "pbrMetallicRoughness": {
        "metallicFactor": 0.0,
        "roughnessFactor": 0.6
      }
    },
    {
      "name": "Emissive",
      "pbrMetallicRoughness": {
        "baseColorFactor": [
          0.996078,
          0.996078,
          0.796078,
          1.0
        ],
        "metallicFactor": 0.0,
        "roughnessFactor": 0.6
      }
    },
    {
      "name": "LED_Yellow",
      "pbrMetallicRoughness": {
        "baseColorFactor": [
          0.996078,
          0.960784,
          0.0,
          1.0
        ],
        "metallicFactor": 0.0,
        "roughnessFactor": 0.6
      }
    },
    {
      "name": "Aluminum_Brushed_5cm",
      "pbrMetallicRoughness": {
        "baseColorTexture": {
          "index": 2
        },
        "metallicFactor": 0.0,
        "roughnessFactor": 0.6
      }
    },
    {
      "name": "edge_color127127127255",
      "pbrMetallicRoughness": {
        "metallicFactor": 0.0,
        "roughnessFactor": 0.6
      }
    },
    {
      "name": "edge_color000255",
      "pbrMetallicRoughness": {
        "metallicFactor": 0.0,
        "roughnessFactor": 0.6
      }
    },
    {
      "name": "material",
      "pbrMetallicRoughness": {
        "metallicFactor": 0.0,
        "roughnessFactor": 0.6
      }
    }
  ],
  "meshes": [
    {
      "name": "Material3",
      "primitives": [
        {
          "attributes": {
            "POSITION": 0
          },
          "indices": 1,
          "material": 0,
          "mode": 1
        }
      ]
    },
    {
      "name": "Material2",
      "primitives": [
        {
          "attributes": {
            "NORMAL": 3,
            "POSITION": 2,
            "TEXCOORD_0": 4
          },
          "indices": 5,
          "material": 1,
          "mode": 4
        }
      ]
    },
    {
      "name": "Material3",
      "primitives": [
        {
          "attributes": {
            "NORMAL": 7,
            "POSITION": 6
          },
          "indices": 8,
          "material": 2,
          "mode": 4
        }
      ]
    },
    {
      "name": "Material2",
      "primitives": [
        {
          "attributes": {
            "NORMAL": 10,
            "POSITION": 9,
            "TEXCOORD_0": 11
          },
          "indices": 12,
          "material": 3,
          "mode": 4
        }
      ]
    },
    {
      "name": "Material4",
      "primitives": [
        {
          "attributes": {
            "POSITION": 13
          },
          "indices": 14,
          "material": 4,
          "mode": 1
        }
      ]
    },
    {
      "name": "Material2",
      "primitives": [
        {
          "attributes": {
            "NORMAL": 16,
            "POSITION": 15
          },
          "indices": 17,
          "material": 5,
          "mode": 4
        }
      ]
    },
    {
      "name": "Material3",
      "primitives": [
        {
          "attributes": {
            "NORMAL": 19,
            "POSITION": 18
          },
          "indices": 20,
          "material": 6,
          "mode": 4
        }
      ]
    },
    {
      "name": "Material2",
      "primitives": [
        {
          "attributes": {
            "NORMAL": 22,
            "POSITION": 21,
            "TEXCOORD_0": 23
          },
          "indices": 24,
          "material": 7,
          "mode": 4
        }
      ]
    },
    {
      "name": "Material3",
      "primitives": [
        {
          "attributes": {
            "POSITION": 25
          },
          "indices": 26,
          "material": 8,
          "mode": 1
        }
      ]
    },
    {
      "name": "Material3",
      "primitives": [
        {
          "attributes": {
            "POSITION": 27
          },
          "indices": 28,
          "material": 9,
          "mode": 1
        }
      ]
    },
    {
      "name": "Material2",
      "primitives": [
        {
          "attributes": {
            "NORMAL": 30,
            "POSITION": 29
          },
          "indices": 31,
          "material": 10,
          "mode": 4
        }
      ]
    }
  ],
  "nodes": [
    {
      "children": [
        1
      ],
      "matrix": [
        1.0,
        0.0,
        0.0,
        0.0,
        0.0,
        2.220446049250313e-16,
        -1.0,
        0.0,
        0.0,
        1.0,
        2.220446049250313e-16,
        0.0,
        0.0,
        0.0,
        0.0,
        1.0
      ],
      "name": "Sketchfab_model"
    },
    {
      "children": [
        2,
        3,
        4,
        5,
        6,
        7,
        8,
        9,
        10,
        11,
        12,
        13
      ],
      "name": "Collada visual scene group"
    },
    {
      "mesh": 0,
      "name": "Material3"
    },
    {
      "mesh": 1,
      "name": "Material2"
    },
    {
      "mesh": 2,
      "name": "Material3"
    },
    {
      "mesh": 3,
      "name": "Material2"
    },
    {
      "mesh": 4,
      "name": "Material4"
    },
    {
      "mesh": 5,
      "name": "Material2"
    },
    {
      "mesh": 6,
      "name": "Material3"
    },
    {
      "mesh": 7,
      "name": "Material2"
    },
    {
      "mesh": 8,
      "name": "Material3"
    },
    {
      "mesh": 9,
      "name": "Material3"
    },
    {
      "mesh": 10,
      "name": "Material2"
    },
    {
      "children": [
        14,
        16
      ],
      "name": "SketchUp"
    },
    {
      "children": [
        15
      ],
      "matrix": [
        0.905919,
        -0.423451,
        -4.163336e-17,
        0.0,
        0.1215154,
        0.2599666,
        0.9579412,
        0.0,
        -0.4056412,
        -0.8678172,
        0.2869644,
        0.0,
        187.483,
        102.5389,
        66.41809,
        1.0
      ],
      "name": "skp_camera_Last_Saved_SketchUp_View"
    },
    {
      "name": "ID1"
    },
    {
      "children": [
        17
      ],
      "matrix": [
        0.8375118,
        -0.5464191,
        1.110223e-16,
        0.0,
        0.1662728,
        0.2548509,
        0.9525778,
        0.0,
        -0.5205067,
        -0.7977952,
        0.3042953,
        0.0,
        192.1249,
        129.5546,
        56.53352,
        1.0
      ],
      "name": "skp_camera_Scene_1"
    },
    {
      "name": "ID2"
    }
  ],
  "samplers": [
    {
      "magFilter": 9729,
      "minFilter": 9987,
      "wrapS": 10497,
      "wrapT": 10497
    }
  ],
  "scene": 0,
  "scenes": [
    {
      "name": "Sketchfab_Scene",
      "nodes": [
        0
      ]
    }
  ],
  "textures": [
    {
      "sampler": 0,
      "source": 0
    },
    {
      "sampler": 0,
      "source": 1
    },
    {
      "sampler": 0,
      "source": 2
    }
  ]
}
